/* XPM */
static const char *xpm_[] = {
/* columns rows colors chars-per-pixel */
"32 32 206 2 ",
"   c #1F0D09",
".  c #1D0B19",
"X  c #2B0E10",
"o  c #25111C",
"O  c #281F1C",
"+  c #35161E",
"@  c #20201E",
"#  c #332012",
"$  c #0C132F",
"%  c #19132D",
"&  c #12142B",
"*  c #120D3B",
"=  c #041637",
"-  c #0B1434",
";  c #06153D",
":  c #0A153D",
">  c #04193D",
",  c #0B193E",
"<  c #151333",
"1  c #1E1B34",
"2  c #12143C",
"3  c #121A3B",
"4  c #161936",
"5  c #0A0E29",
"6  c #27142D",
"7  c #361A28",
"8  c #230F32",
"9  c #2C1432",
"0  c #261736",
"q  c #36222D",
"w  c #2A223D",
"e  c #322536",
"r  c #3C3E3D",
"t  c #48191A",
"y  c #64251A",
"u  c #633818",
"i  c #473B2F",
"p  c #563336",
"a  c #772F21",
"s  c #703E3D",
"d  c #71392C",
"f  c #754610",
"g  c #5D4328",
"h  c #7C4F28",
"j  c #7E502E",
"k  c #614B3D",
"l  c #7A4F39",
"z  c #6C5038",
"x  c #0F0F41",
"c  c #051642",
"v  c #0A1543",
"b  c #051A44",
"n  c #0B1944",
"m  c #06154A",
"M  c #0B164B",
"N  c #051B4C",
"B  c #0C1A4C",
"V  c #121444",
"C  c #131B45",
"Z  c #11164C",
"A  c #111949",
"S  c #1B1F4E",
"D  c #061B52",
"F  c #0B1C53",
"G  c #0D195A",
"H  c #111C55",
"J  c #1B1D56",
"K  c #10175D",
"L  c #042046",
"P  c #0C204D",
"I  c #1D2345",
"U  c #0D2153",
"Y  c #092359",
"T  c #072259",
"R  c #16215C",
"E  c #1C225C",
"W  c #112C5D",
"Q  c #1A2759",
"!  c #252740",
"~  c #25284A",
"^  c #342F43",
"/  c #373A47",
"(  c #212758",
")  c #2E3F51",
"_  c #1A1D67",
"`  c #201F63",
"'  c #0F2564",
"]  c #162464",
"[  c #192562",
"{  c #192665",
"}  c #1B2466",
"|  c #122A62",
" . c #152862",
".. c #142A63",
"X. c #162962",
"o. c #112D61",
"O. c #112A65",
"+. c #152A64",
"@. c #122D65",
"#. c #162D65",
"$. c #192864",
"%. c #14256A",
"&. c #14246C",
"*. c #1A256B",
"=. c #122969",
"-. c #142B6A",
";. c #1D2B6C",
":. c #192A70",
">. c #212363",
",. c #20236A",
"<. c #413B47",
"1. c #314069",
"2. c #454044",
"3. c #524050",
"4. c #585A4C",
"5. c #6A4945",
"6. c #755145",
"7. c #64535B",
"8. c #6C685F",
"9. c #70635A",
"0. c #504162",
"q. c #545766",
"w. c #644F60",
"e. c #6D5A68",
"r. c #8E3612",
"t. c #882A0E",
"y. c #A73A0D",
"u. c #854700",
"i. c #AC501D",
"p. c #B26016",
"a. c #8D532D",
"s. c #8E4E3D",
"d. c #87553E",
"f. c #985936",
"g. c #A34A29",
"h. c #B05B25",
"j. c #A44F3B",
"k. c #A25B3F",
"l. c #BA4C27",
"z. c #90662C",
"x. c #93633B",
"c. c #B96A2F",
"v. c #A86938",
"b. c #B66335",
"n. c #AC713C",
"m. c #A97339",
"M. c #BC7831",
"N. c #C57516",
"B. c #C9642E",
"V. c #D16B23",
"C. c #D97C2D",
"Z. c #C9743B",
"A. c #865A4B",
"S. c #975A41",
"D. c #8C6146",
"F. c #836040",
"G. c #9C7441",
"H. c #9C7941",
"J. c #916B5E",
"K. c #957856",
"L. c #866556",
"P. c #A27242",
"I. c #BA7B44",
"U. c #B67649",
"Y. c #AB7451",
"T. c #AD7952",
"R. c #846165",
"E. c #917C61",
"W. c #887B72",
"Q. c #A97665",
"!. c #CE7644",
"~. c #C1832E",
"^. c #CF8830",
"/. c #DB8A36",
"(. c #D88433",
"). c #C9903F",
"_. c #DA862C",
"`. c #E89039",
"'. c #AE8A4D",
"]. c #BE8F4B",
"[. c #AF8457",
"{. c #B1985F",
"}. c #BD8B6A",
"|. c #B29261",
" X c #A09672",
".X c #A78D68",
"XX c #CE8745",
"oX c #C1924A",
"OX c #D0954F",
"+X c #CD9256",
"@X c #E19947",
"#X c #F0A144",
"$X c #EBA649",
"%X c #CA9763",
"&X c #A6A086",
"*X c #AEB4A8",
"=X c #B0B0A8",
"-X c #C3BA99",
";X c #F0C58E",
":X c #F1C097",
">X c #C9C3A9",
",X c #DCC1A3",
"<X c #F0E0AD",
"1X c #EECFB0",
"2X c #D6E0C5",
"3X c #E8F1D6",
/* pixels */
": v N N D N A C B U #.#.@.@.-.-.-.-.+.#.-.@.o.W Y F Z C n n N m ",
"v v b N N n n n n P W @.o.@.+.=.=.=.+...O.o.W W Y D B A n n n N ",
", : v c n n n n n B W o.| O.o.+.+.........o.W W T D M Z n n b b ",
"> > : : , n n n n B W o.o.+.....+.........o.W o.Y D M B n n b b ",
"> , , : , c n B N F o.+...+...o.@.O.......+.=.O.Y N N n n v v v ",
": , , : v v m B N F ..+.[ $.o.O.O.o.......+.=.O.Y b b n n n v v ",
"2 : v v m m v v m F [ } [ $.=.=.+. . . ...o.=.O.U b > > , v v c ",
"2 : v v m m v v v B [ } [ $.%.%.{ } } [ ....O. .F n > > : : : ; ",
": : n c v ; , = , n [ *.%.&.:.:.&.&.&.*.] } _ E Z v n > : : = > ",
": : c ; : , , , : n [ ] &.' ;.R R E J >.} *.,.` J M v ; : n , = ",
"> > ; ; : , ; c v B R ] *.] R I 0 e e w J ] _ _ K M c n v v v : ",
"> > : , : n ; b v M E ( J ( ~ e 6.D.K.k ! R >._ G D c v n : v v ",
"> > : , v n : v A V ~ 0.e.3.q.W.n.(.~.'.4.) ~ A B B c ; n c ; ; ",
"c ; - 2 v v 3 - 5 % w.R.A.A.=X&XOX#X$XoX-X*X8.<.4 > n ; v ; : ; ",
"v : * 2 v , / r @ O L.Y.c.I.>X2X{.].+X%X,XK.'.|.i & 2 n , > : : ",
"x : 2 2 ; I 9.K.E.g F.n.`.@X X3X<XH.P.:X[.f u.).K.O < V n > v v ",
"v : : : ; / j I.U.T.1XG._./..X>X|.z.H.;Xm.M.N.^.[.# < v : : v n ",
"v : - - , <.a.Z.b.U.1XG._./.K.z T.v.m.%XI.XXC.p.h   < n n n c c ",
"; : , , n ^ l v.k.S.Q.f.V.C.x.u b.B.!.U.}.T.Z.b.p % , c c c v , ",
": : : ; : ! 5.A.s t t s.i.h.D.l r.y.y.g.A.J.a y 9 V n c b c , : ",
"v v : : n 2 w 6 8 9 7 5.S.d.e.7.y t.l.g.d q 6 0 * V v v n v ; : ",
"v : ; c n , C : v V % o X o ~ 0 t s.j.a + & C M Z Z m v n : ; > ",
"$ - v m v ; ; ; b P n 2 < 2 n 3 . p 7 7 1 C v B v c m M n , ; > ",
"& - c m M v > b L b B B m H F n 4 1 < C B m A n n n N B v v ; > ",
"- : v c v v n n c b n B N B B B Z A n n F B B n C v n n N b n ; ",
": : v v v v B B n n B B N N B B F F N N F F B n n n n n N b v A ",
"v v v v m M M B n n B B N N N B F F B B F F B B B n n b b b n : ",
"v v v v m m M M n B B B N N N B F F F B F B B B N N N b b b n : ",
"v v : v c m M M n B A Z B N N B B B B B F D F N D D N B B ; ; , ",
"n : , , n n M M n n A A B N B B B B B B F F F F F N F U c B ( , ",
"c c ; > n n V M b b n b N D B B B B B F F F G F B n B F m Q 1.n ",
"c c c c , n V n b L L b N D F B B B F F H H G F M S m m B B B n "
};
