/* XPM */
static char *_e9885fdee0e4177b2756dcd36ffca1dTJ7bP8RW2CpvEnNH[] = {
/* columns rows colors chars-per-pixel */
"32 32 70 1 ",
"  c #000C38",
". c #010E38",
"X c #010E3B",
"o c #020F3B",
"O c #04113B",
"+ c #06123A",
"@ c #03103D",
"# c #04113D",
"$ c #05123C",
"% c #06123C",
"& c #06133D",
"* c #05123E",
"= c #04133E",
"- c #04123F",
"; c #05123F",
": c #06133F",
"> c #05143F",
", c #021041",
"< c #051340",
"1 c #061340",
"2 c #051342",
"3 c #041243",
"4 c #061242",
"5 c #071343",
"6 c #071440",
"7 c #061441",
"8 c #071441",
"9 c #041543",
"0 c #071542",
"q c #061443",
"w c #051344",
"e c #061244",
"r c #051246",
"t c #061347",
"y c #071544",
"u c #061445",
"i c #051644",
"p c #061745",
"a c #051546",
"s c #071546",
"d c #061647",
"f c #091640",
"g c #0A1741",
"h c #081542",
"j c #091642",
"k c #091643",
"l c #081444",
"z c #091545",
"x c #081645",
"c c #0A1744",
"v c #081446",
"b c #081647",
"n c #0B1844",
"m c #0D1A46",
"M c #051548",
"N c #051549",
"B c #071448",
"V c #051749",
"C c #071748",
"Z c #061649",
"A c #06164A",
"S c #081549",
"D c #091748",
"F c #08154A",
"G c #09164A",
"H c #0B194A",
"J c #0C1A4B",
"K c #192652",
"L c #1B2854",
"P c #2D3A66",
/* pixels */
"ddddCCCCCCCCCCCCddCCCCCCCCCCdddC",
"ddddCCCCCCCCCCCCddCCCCCCCCCCdddd",
"ddddCCCCCCCCCCCCddCCCCCCCCCCdddd",
"ddddCCCCCCCCCCCCddCCCCCCCCCCdddd",
"9d9dddCCCCCCCCCCBDCCCCCCCCddxd99",
"999ddCCCCCCCCCCCDDCCCCCCCddddd9<",
"<9dxxxddCCCCCCCCDDCCCCCCddddd9<<",
"<9dxxxddCCCCCCCCDDCCCCCCddddd9<:",
":999dxxDCCCCCCCCCCCCCCddddxd<:::",
"::99dxxxCCCCCCCCCCCCCCddddx9<:::",
"::<9ddxxCCCCCCCCCCCCCCCddd99<:::",
"::<<9ddxCCCCCCCCCCCCCCCCd999::::",
":+::<9dxxdCCCCCCCCCCCCddx99<:++:",
"::::<9dxxdCCCCCCCCCCCCdddd<>+++:",
":+::<9dxxxCdCCCCCCCCCCddd9<:::++",
"::::<9dxxxCCCCCCCCCCCddd99::::++",
":++:::<9DDCCCCCCCCCCCCCdd9::::::",
"::+:::<9DDCCCCCCCCCCCCxd99::++::",
"::::9<<<xDCCCCCCCCCCCCxx99::+++:",
"::::9<<<xxCCCCCCCCCCCCDx99::++::",
"::::<<<9xxCCCCCCCCCCCCxx99::+:::",
"::::<<<9xxCCCCCCCCCCCCxxd9<::++:",
"9:::<<<9CCCCCCCCCCCCCCxxd9::::::",
"9::::<9dCCCCCCCCCCCCCCxxd9::::::",
"::::<<ddxxCCCCCCCCCCCCCDrdk:::++",
"::::<9ddxxCCCCCCCCCCCCDDdr<<:::k",
"<<::99ddDDCCCCCCCCCCCCDDH,<k :k ",
"<::99ddxDDCCCCCCCCCCCCDDx<<x<:k:",
"<<99ddxxDDCCCCCCCCCCCCDDrH<9k  k",
"<<99ddxxDDCCCCCCCCCCCCDDDxx< mK:",
":<<<dxxxDDCCCCCCCCCCCCCCD<xx@LPk",
":<<<dxxxDDCCCCCCCCCCCCCCrJrxk<n9"
};
