/* XPM */
static char *_3a929886be64dd48e3bd31092e97d3dWd6kksRPQOARAP2u[] = {
/* columns rows colors chars-per-pixel */
"32 32 197 2 ",
"   c #061537",
".  c #05153C",
"X  c #09163D",
"o  c #06193D",
"O  c #09193E",
"+  c #10153F",
"@  c #041643",
"#  c #0B1643",
"$  c #061944",
"%  c #0A1A44",
"&  c #04154A",
"*  c #0C164A",
"=  c #051B4B",
"-  c #0B1B4C",
";  c #111541",
":  c #101B44",
">  c #10174C",
",  c #101A4C",
"<  c #0D1752",
"1  c #051D52",
"2  c #0B1C53",
"3  c #021D5C",
"4  c #0E1C5A",
"5  c #111C54",
"6  c #131C5D",
"7  c #0A2047",
"8  c #03244D",
"9  c #0D204D",
"0  c #112049",
"q  c #022253",
"w  c #0D2154",
"e  c #022A56",
"r  c #02235A",
"t  c #0E235C",
"y  c #132254",
"u  c #1A2B57",
"i  c #13215E",
"p  c #1A255E",
"a  c #1B2C5E",
"s  c #172D52",
"d  c #00375C",
"f  c #113255",
"g  c #202E5F",
"h  c #22385F",
"j  c #032666",
"k  c #0B2363",
"l  c #022C63",
"z  c #0E2C64",
"x  c #032C6B",
"c  c #07286A",
"v  c #142564",
"b  c #192765",
"n  c #122C67",
"m  c #122D65",
"M  c #162C66",
"N  c #152D66",
"B  c #142A64",
"V  c #192B66",
"C  c #152769",
"Z  c #182768",
"A  c #122A69",
"S  c #162868",
"D  c #15286A",
"F  c #16296A",
"G  c #152C68",
"H  c #14296C",
"J  c #1A296A",
"K  c #0F3065",
"L  c #003865",
"P  c #02326A",
"I  c #003F6F",
"U  c #0D396C",
"Y  c #103069",
"T  c #10386C",
"R  c #163466",
"E  c #002D70",
"W  c #122F71",
"Q  c #09357E",
"!  c #053D7D",
"~  c #053B77",
"^  c #123272",
"/  c #133272",
"(  c #103D74",
")  c #1A377B",
"_  c #12436B",
"`  c #004C70",
"'  c #02447B",
"]  c #0D447C",
"[  c #13417F",
"{  c #1C4478",
"}  c #0F527D",
"|  c #264C79",
" . c #324071",
".. c #024B8A",
"X. c #0D4383",
"o. c #1D4080",
"O. c #114E87",
"+. c #184D83",
"@. c #164283",
"#. c #125685",
"$. c #174894",
"%. c #1B4E9F",
"&. c #085A92",
"*. c #1A5098",
"=. c #1D5998",
"-. c #195894",
";. c #265080",
":. c #335382",
">. c #235A95",
",. c #215F9C",
"<. c #066A8E",
"1. c #076892",
"2. c #0B6099",
"3. c #006F98",
"4. c #13649E",
"5. c #1D659A",
"6. c #1D709A",
"7. c #24659F",
"8. c #306A98",
"9. c #367297",
"0. c #1E5DA0",
"q. c #1B62AE",
"w. c #126CAB",
"e. c #1073AE",
"r. c #176EB3",
"t. c #1C6AB5",
"y. c #1974B3",
"u. c #1976B9",
"i. c #167DBF",
"p. c #197CB9",
"a. c #2A6FA4",
"s. c #2266A3",
"d. c #3063A2",
"f. c #3B64A6",
"g. c #2C7DAC",
"h. c #3970A6",
"j. c #3375AF",
"k. c #337AA4",
"l. c #276FB9",
"z. c #2764B4",
"x. c #297EB7",
"c. c #2874B5",
"v. c #3777B4",
"b. c #307CBA",
"n. c #2D7DC2",
"m. c #0E81AE",
"M. c #1C87AD",
"N. c #1D8CB3",
"B. c #1489BF",
"V. c #1C8ABF",
"C. c #118CB5",
"Z. c #2889AC",
"A. c #3989AE",
"S. c #2A8BB3",
"D. c #2488B9",
"F. c #2C8CBC",
"G. c #2490B6",
"H. c #2596B8",
"J. c #1F8DC8",
"K. c #1A84C2",
"L. c #1396CB",
"P. c #1799CA",
"I. c #1B9ED4",
"U. c #298CC7",
"Y. c #278FCE",
"T. c #3E8BC3",
"R. c #2493CC",
"E. c #2991CB",
"W. c #219BCA",
"Q. c #3A94CA",
"!. c #339DCF",
"~. c #3B99CD",
"^. c #3D97D5",
"/. c #1AABD5",
"(. c #1FA3D4",
"). c #1EB9D8",
"_. c #1FB4D7",
"`. c #3DA9CF",
"'. c #2CADD7",
"]. c #27ACD5",
"[. c #33ADD2",
"{. c #23B1D7",
"}. c #26BDDD",
"|. c #2FBEDE",
" X c #30B7D7",
".X c #37A5E0",
"XX c #3CA9E2",
"oX c #33B0E6",
"OX c #38B4E8",
"+X c #31BEE9",
"@X c #429DD2",
"#X c #4BA4CC",
"$X c #42B7EC",
"%X c #36C0DC",
"&X c #33C7E3",
"*X c #3FC4E5",
"=X c #3ACBE6",
/* pixels */
"o o $ = = % - , 5 w m m N N V N m K N N N m m m t 2 = - = % > > ",
"o o $ % % - - - - w m m m N N N m z N N n m m m w - = = = % * # ",
"O O # % , - - = = q z m z m N B m n N N A m z m w - % = = $ % % ",
"O O # # - % - = = q m N n m N N F F F F F m m m w - % % $ $ % % ",
"X O # % # % % % = 2 B N N n n n A F F F F F N B w - % % % # % # ",
"X O % % $ $ # # % - p V N F n m A F C F F F n B w - % % # # # # ",
"o O # $ $ $ # # # , p V Z F n n N N v v C C n m w - = % # O O O ",
"o o o $ $ $ # # # - p J C A A A N N C v C F N B 2 = $ % $ O # O ",
"X O . $ % # . $ $ % p v H W ^ ^ v b b i J F t N 1 = $ $ # # % . ",
". . O O O O # o $ 2 i J ) f.d.~ l l U P P P ( l r = & @ # O X O ",
"o O ; ; O # % . . - i H c *.x.D.1.<.M.H.N.M.S.6.} e = % # # : O ",
"o X X # O . O O % 5 v j E ..V.'.*X%X=X&X|. X[.`.#Xk.e @ $ # # . ",
"  O O O % # . # % & k x ..p.OX+X}.}.)._.{.].C.3.G.Z.` d $ @ # # ",
"X O o $ % # . $ @ q x ,.^..XP.(./._././.P.P.W.m.N.S.A.9.8 @ # X ",
"X   . . . % 0 @ = e 5.~.E.K.i.Y.R.B.L.L.I.oX$X!.F.g.8.| 9 # . % ",
"O   O # o s h 8 8 #.Q.U.p.u.r.y.w.e.XXR.J.E.y.&.' l q w & . % . ",
"$ . O % X O f _ I T.n.t.q.l.c.c.4.@XQ.2.4.-.x l r 1 = # # # O O ",
"#   X   : 7 e L a.b.q.z.%.$.X.O.=.5.' x [ o.k 4 4 * * # # # # O ",
". O + ; # & T ] v.0.*.Q c 3 k r k z 3 k F k 4 4 < - # % % $ $ @ ",
"X X # # @ q P >.=.! @./ 3 2 5 5 < 2 4 6 6 < 5 5 * * # % % $ @ $ ",
"O .   = q +.j.s.! j Y w - 9 - * y 5 5 * < 4 2 - - * # % # # # # ",
"  o $ . ;.h.a.7.>.l 1 $ u % % y - - 5 - 2 2 & - % % # % # # # # ",
"o . . w :.U l l { R = = - y 2 - - = % - 2 - = - = $ $ % % # # # ",
". . % . 2 & = = q w % - - * 2 4 - - % - = = 2 = = $ $ $ $ # # # ",
"X O # # # # % % $ % - - > < 2 2 - - - - - - - - % $ % % @ % % . ",
"X # # # # # : : # % - > > - - - - - - 2 2 2 2 - * - - % % @ $ - ",
"# # % = % % % % $ % - - > - = 7 = = 2 2 2 2 2 - - * * # # # % # ",
"# # $ = = $ $ # $ = - - - - = = = = 1 2 2 2 2 2 * * # - - % % # ",
"@ $ $ % % * # $ $ = - % - - - - - 2 2 2 4 4 4 2 - - % = = @ & $ ",
"@ @ # % % % % % % % % % % - - - 2 2 2 4 4 4 4 2 - - - - @ 9 a $ ",
"O O O # $ $ = % * - - % % - 2 2 2 - - 2 4 4 2 2 - = - - # g  .- ",
"# O O O $ $ = - * > , - = = 2 4 - - - 2 4 4 2 - = y & & , - , * "
};
