/* XPM */
static char *cc91b1277b9b4a22cd33b895f7e6dd2a8LsSSiKottRwtkAK[] = {
/* columns rows colors chars-per-pixel */
"32 32 135 2 ",
"   c #06173C",
".  c #0A163D",
"X  c #06183E",
"o  c #09183E",
"O  c #10153F",
"+  c #051641",
"@  c #0C1743",
"#  c #061A44",
"$  c #0A1944",
"%  c #051C4B",
"&  c #0C1C4C",
"*  c #101744",
"=  c #101942",
"-  c #111A4C",
";  c #051F50",
":  c #0D1E51",
">  c #111C51",
",  c #002043",
"<  c #05214D",
"1  c #0C214C",
"2  c #11214E",
"3  c #032453",
"4  c #0C2255",
"5  c #062559",
"6  c #0B2558",
"7  c #032C5A",
"8  c #0D2A5B",
"9  c #102051",
"0  c #1D2C57",
"q  c #102658",
"w  c #18275E",
"e  c #152A5E",
"r  c #1C295D",
"t  c #0F2763",
"y  c #142664",
"u  c #142B64",
"i  c #192964",
"p  c #162D69",
"a  c #083D65",
"s  c #133862",
"d  c #193864",
"f  c #1E306E",
"g  c #333E6B",
"h  c #064767",
"j  c #0B446B",
"k  c #0F4A6D",
"l  c #114169",
"z  c #254473",
"x  c #2A4C7E",
"c  c #26527F",
"v  c #28557F",
"b  c #274F83",
"n  c #284D81",
"m  c #275283",
"M  c #2B5184",
"N  c #2A5983",
"B  c #2D558C",
"V  c #2C5A8B",
"C  c #305282",
"Z  c #31568B",
"A  c #30558C",
"S  c #31588F",
"D  c #305790",
"F  c #325B91",
"G  c #305E92",
"H  c #315F90",
"J  c #2D6496",
"K  c #27639C",
"L  c #2B659C",
"P  c #2B699D",
"I  c #316795",
"U  c #336395",
"Y  c #316C96",
"T  c #32669A",
"R  c #34699C",
"E  c #2C66A1",
"W  c #2D6BA1",
"Q  c #306FA5",
"!  c #3174A4",
"~  c #3C7AA1",
"^  c #3572A8",
"/  c #347CAE",
"(  c #377DAE",
")  c #367EAE",
"_  c #3F7FAF",
"`  c #3B7EB2",
"'  c #3E7DB0",
"]  c #48759E",
"[  c #4676A6",
"{  c #427AAB",
"}  c #3582AE",
"|  c #3A83AE",
" . c #3783B0",
".. c #3B82B0",
"X. c #3C82B3",
"o. c #3887B0",
"O. c #3B83B5",
"+. c #3B85B3",
"@. c #368BB4",
"#. c #338CB6",
"$. c #3B8AB5",
"%. c #3E8BB6",
"&. c #358EB8",
"*. c #398DB9",
"=. c #3790B8",
"-. c #3790BA",
";. c #3991B9",
":. c #3A93BB",
">. c #3A94B9",
",. c #4287B1",
"<. c #408FB6",
"1. c #408FB8",
"2. c #4693BA",
"3. c #5F99BF",
"4. c #4A99C0",
"5. c #539DC4",
"6. c #589CC3",
"7. c #569FC8",
"8. c #5DACD3",
"9. c #5AABD6",
"0. c #5DACD5",
"q. c #5FA9D0",
"w. c #5EADD8",
"e. c #5EACDA",
"r. c #61ACD6",
"t. c #64AED3",
"y. c #6CABD7",
"u. c #64AEDB",
"i. c #67B0DB",
"p. c #6EB6D9",
"a. c #61BADC",
"s. c #73BCDD",
"d. c #76BFE2",
"f. c #72C0E6",
"g. c #7ECFED",
/* pixels */
"@ $ $ $ $ & & & & 4 i u u u u u u u u u u u u u 6 : % 1 & & - * ",
"@ @ $ @ $ & & & & 4 i u u u u u u u u u u u u u 6 : % & & & & @ ",
"@ @ @ @ @ & & & & : i u i u u u i i u u u u u i 6 & % & % & $ @ ",
"@ @ @ @ @ $ $ & & : e i i u u u i i u u u u u i 6 & % % % & $ @ ",
"X @ $ @ @ @ $ & & : e i i u u u i i u u u u i e 6 & % % % $ $ @ ",
"X @ $ @ o @ $ $ & : e i i i i i i i u y u i i w 4 & % & % $ $ @ ",
"X o X o o $ $ $ % : e i i i i i i i u y y i i r > & $ & # # @ @ ",
"X X X o o $ $ @ % ; 8 u i i i u i u u u y i i r > & $ @ # @ @ o ",
"o o     . * * $ % 3 8 u u y f p u y t p u u i i > & $ @ @ @ o o ",
". . o . . . $ # 3 v V V S A D D B F H V B Z x e : & $ @ @ @ o o ",
". . o o . o # # k s.f.8.r.u.e.e.e.e.9.0.i.y.[ 7 < % # @ o . . @ ",
". . o o . o # , h g.a.>.@.*.#.-.&.-.;.;.$.,.U 7 < # # @ o . . O ",
". .   o . $ @ # k d.4. .X.` / O.X./ / .._ { V 5 % $ @ @ o o . . ",
".       . = @ % k p.2.+.' ^ W P W W W P R R M 6 & $ $ @ @ . . . ",
".       . = @ % k p.2. .! W W P P W W P P R M 6 & $ $ @ o .   . ",
". X     . $ $ % j t.<.} ! L L W L W W L R R n 6 & & $ @ @ . . o ",
"      . @ @ @ % j q.1. .Q E E E E E L L L T b 5 & & @ @ @ . . . ",
".     . @ @ & % j 7.%...W L K E E E E L L T b 5 % & @ @ @ @ . o ",
". .   . @ @ $ % j 5.%.| P P K W L K L L J U m 5 % & @ $ $ @ X X ",
". .   . @ @ # % a 6.| ! J P K K L J T T J U m 3 % % @ $ $ # X X ",
". .   X @ $ # % l 3.~ Y U U T J U U U U H U x 3 % % $ $ $ # X X ",
". .   X @ $ # % s ] N c M x M m M M M m m C z 4 % $ $ $ $ # # X ",
". .   X @ $ $ # < d 8 8 e q e 8 8 8 8 8 8 8 4 % & & @ $ $ @ @ @ ",
". .   X # @ $ $ % % & & & & 4 % : : % 4 : % & : & & @ @ $ @ @ @ ",
". . # # # @ $ $ $ $ & & - - & & & & & & & & & & & & & @ @ $ @ . ",
". . @ @ @ & $ & $ & & & - & & & & & & & & & & & & & & $ $ $ @ $ ",
"@ @ @ @ $ $ $ & $ & & & & & & & & & & & & & & & & # & & + + & + ",
"@ @ @ @ @ # # # $ & & & & & & & & & & & & & & & & % & & $ # & # ",
"$ @ @ @ @ @ # # & & & & % % & & & & : : : : : & % & % % 1 # + $ ",
"@ @ @ @ $ $ $ $ $ & & & % & & & & & & : : : : : & : & & + 2 0 $ ",
"# X @ @ $ $ $ $ $ & & & & & : - : & : : > > : : & & 9 2 @ 0 g - ",
"# # @ @ $ $ $ $ & & & & & - > > - & > > > > > : & : @ & - - - @ "
};
