/* XPM */
static char *a29c6c6d009f4082e774c578cab34eb3NAmjAcFbgby6We87[] = {
/* columns rows colors chars-per-pixel */
"32 32 222 2 ",
"   c #0A0D3D",
".  c #060E3D",
"X  c #031435",
"o  c #081037",
"O  c #071834",
"+  c #05143D",
"@  c #0B143C",
"#  c #04193D",
"$  c #0A1A3C",
"%  c #10133C",
"&  c #041543",
"*  c #0A1543",
"=  c #041944",
"-  c #0A1A44",
";  c #04154A",
":  c #0A164B",
">  c #041B4B",
",  c #0B194B",
"<  c #101441",
"1  c #101944",
"2  c #11164C",
"3  c #13184F",
"4  c #041652",
"5  c #051B54",
"6  c #0C1B53",
"7  c #031C5B",
"8  c #0B1B5B",
"9  c #0C1653",
"0  c #111753",
"q  c #111C52",
"w  c #10195C",
"e  c #04204E",
"r  c #032254",
"t  c #04225D",
"y  c #0C235C",
"u  c #0D2B5D",
"i  c #08265A",
"p  c #172156",
"a  c #102F5E",
"s  c #17295A",
"d  c #0C1463",
"f  c #061E61",
"g  c #0C1C63",
"h  c #0E1D6B",
"j  c #041E6B",
"k  c #141664",
"l  c #121D65",
"z  c #141769",
"x  c #131D6D",
"c  c #1C1E6B",
"v  c #131E72",
"b  c #191E74",
"n  c #0C2363",
"m  c #072966",
"M  c #0D2B63",
"N  c #0C246A",
"B  c #062B6A",
"V  c #0B2B6B",
"C  c #072666",
"Z  c #122364",
"A  c #132B64",
"S  c #14246B",
"D  c #19226C",
"F  c #132D6A",
"G  c #1A276B",
"H  c #05336F",
"J  c #0B326B",
"K  c #0B386F",
"L  c #113062",
"P  c #13326D",
"I  c #1E326D",
"U  c #0F2371",
"Y  c #002C70",
"T  c #0C2C73",
"R  c #142472",
"E  c #1A2373",
"W  c #152C73",
"Q  c #1A2B74",
"!  c #16247B",
"~  c #1C227B",
"^  c #142D7D",
"/  c #1B2B7C",
"(  c #0D3473",
")  c #033A75",
"_  c #0B3974",
"`  c #0A377C",
"'  c #0C3D7C",
"]  c #053670",
"[  c #143473",
"{  c #1A3374",
"}  c #123977",
"|  c #10367B",
" . c #1B347A",
".. c #123D7B",
"X. c #1C3C7B",
"o. c #06427E",
"O. c #0C437C",
"+. c #14407F",
"@. c #1A417A",
"#. c #35426E",
"$. c #1D2F81",
"%. c #0E3D83",
"&. c #1B3482",
"*. c #113D82",
"=. c #1A3A81",
"-. c #1C3C89",
";. c #232B83",
":. c #232F8B",
">. c #2F3885",
",. c #243189",
"<. c #2C378D",
"1. c #243C8C",
"2. c #2B3A8C",
"3. c #213483",
"4. c #2A3B91",
"5. c #243992",
"6. c #0B4582",
"7. c #0B4985",
"8. c #0D4E8B",
"9. c #004D85",
"0. c #134281",
"q. c #1B4186",
"w. c #114B8A",
"e. c #18498B",
"r. c #1C408A",
"t. c #04578A",
"y. c #0D528D",
"u. c #035E8D",
"i. c #1C4B91",
"p. c #045A92",
"a. c #0B5E96",
"s. c #0F5591",
"d. c #185B97",
"f. c #284587",
"g. c #214883",
"h. c #28468C",
"j. c #254393",
"k. c #2C4493",
"l. c #2D4A92",
"z. c #284F9A",
"x. c #294996",
"c. c #394790",
"v. c #364C96",
"b. c #32439A",
"n. c #324C9C",
"m. c #374798",
"M. c #275497",
"N. c #32519A",
"B. c #3A529C",
"V. c #07619A",
"C. c #0C629C",
"Z. c #0A689E",
"A. c #364CA2",
"S. c #3D5AA3",
"D. c #3A53A8",
"F. c #3D5AAD",
"G. c #3559A6",
"H. c #0C6FA8",
"J. c #0869A1",
"K. c #1267A7",
"L. c #126DA4",
"P. c #057AAC",
"I. c #0577A8",
"U. c #1371AE",
"Y. c #3061A6",
"T. c #3E60A7",
"R. c #3D65AC",
"E. c #3F6CAD",
"W. c #3A64B3",
"Q. c #3B6DB4",
"!. c #41589C",
"~. c #4259A7",
"^. c #4458AA",
"/. c #445CB1",
"(. c #4B60AF",
"). c #4469AC",
"_. c #4360AE",
"`. c #4362B4",
"'. c #446BB5",
"]. c #4C6CB7",
"[. c #4C66B9",
"{. c #4C65B6",
"}. c #506EB7",
"|. c #5168BA",
" X c #4273B4",
".X c #4573B9",
"XX c #417ABF",
"oX c #4973BB",
"OX c #4A7AC3",
"+X c #4E7EC8",
"@X c #5276C0",
"#X c #0789AD",
"$X c #0784B3",
"%X c #0589B4",
"&X c #0787B8",
"*X c #0886B9",
"=X c #0687B8",
"-X c #1180B8",
";X c #1489BF",
":X c #0096C1",
">X c #0499C2",
",X c #0F9DC8",
"<X c #10A0C2",
"1X c #18A3CE",
"2X c #11ACCB",
"3X c #0EACD0",
"4X c #16ADD4",
"5X c #15B6D5",
"6X c #18B5D8",
"7X c #12B8D6",
"8X c #09A9C3",
"9X c #5B90D4",
"0X c #15C7E2",
"qX c #27CDE5",
"wX c #2ADEEE",
"eX c #28D1E3",
"rX c #2ADDF1",
"tX c #3BECF6",
"yX c #36E5F4",
"uX c #3FF6FD",
"iX c #54FFFF",
"pX c #5AFFFF",
/* pixels */
"* * * @ $ - , , , i a L A A F F M A A A A A u L r 5 6 : : : , = ",
"& * * @ - - - , , 6 u u u A M M F n M A L M M u r > : : : , = = ",
"# # = = = , , : : 6 u u u M M F F A A M t m A A 6 , : : , = = * ",
"+ # = > > > - , : 6 u M M J V m N C V V P F S Z 6 , - - = = - @ ",
"@ @ * & & = = - & 6 F W V ( ` %.' 0.} V N S D G 6 , = = = * @ @ ",
"@ @ * * * + # # e t W &.r.z.G.W.'.E.M.} T W Q S 6 , = = * * @ @ ",
"@ @ * * @ @ $ = r B j.F.'.`.A.4.k.v.). XY.i.*.V y , = = * * @ @ ",
"@ * * * @ $ - e ( x.`./.j.^ v b x g V ..M.OX.X..M , & = * * @ X ",
"* * + * * = r X.R.`.b.;.D l S Q Q Q N N j -.oXM.J r > & * * + + ",
"+ - * * : 5 ( R.`.5.~ E D Z F X.X. .S h h R 1.).g.i > > , & * # ",
"+ - = & 6 n l.`.b.! R Q { [ _ O.) ' q.W Q E x >.!.[ 8 ; ; & * * ",
"@ + # = 5 W _.j.v E W [ +.7.9.t.u.t.6.q.T Q z z v.v.G 4 ; & - . ",
"@ o # & 5  .].^ x S V _ 8.J.P.%X#XI.p.7.*.N S D 3.(.c.8 ; -   < ",
"@ @ + & M h.~.U S Z ( 8.V.$X4X5X8X<XP.V.6.} N R / {.m.g ; + * * ",
"@ @ + > [ T.k.z n V 6.a.I.,XqXwXwX7X>XI.y.] V R ;.m.S.C & = + # ",
"+ @ * > H .X<.v W J 7.V.&X6XyXiXuXrX3X$Xa.) J S ~ :.].} > & = X ",
"X $ & A w.+X4.x W ' w.L.%X5XtXpXiXyX4X*XV.o.} S b :.W.*.5 * # + ",
"O X * 5 e.OX&.x W ( 6.C.$X2XeXtXuXeX1X-Xa.o.[ Q ~ ,.W.Y ; * @ @ ",
"@ < : ; T '.4.v Q { ..s.P.,X7X0X0X3X;XK.y...P S b <.`.( > * % % ",
"@     q V N.^./ S Q [ O.p.P.=X:X:X%XU.y.O.@.F g R ~.l.M = # @   ",
"* * * p I X.}.&.N Z P J O.y.C.H.J.Z.d.6.K P n f | @Xf.5 > = * , ",
"& , * + 6 n S.N.Q g n M [ } 7.d.7.o.0.( M n 7 N z.G.{ , = + & ; ",
"; & + @ * 5 X.].2.h g 8 n n J _ J m n g g g x 2.].=.6 : # = , ; ",
"; & * + - & 7 l./.,.! g g Z Z n Z Z l k d x <.(.k.{ : * X # & ; ",
"& = @ @ * : t N b.D.D.k.! d d k k c z v ! n.|.n.W 8 2 < X # - * ",
"+ # * * * : 5 n U 1.F.[.A.$.E E x R k.b./.[.=.C 7 6 0 * + # @ * ",
"+ @ * & : ; ; 6 8 l / B.].'.'.R. X9XXXQ.N.N n 7 5 ; : , - # @ @ ",
"@ @ & ; ; ; & * : 0 8 n B H _ ` ' 7.6.) V 8 5 6 : 6 ; ; , - * * ",
"# # ; ; ; & * # * * : > > r 7 4 f 7 C t 4 6 6 , : 6 ; 5 6 & & = ",
"# # ; ; : * = = - , , , > = 6 9 9 9 4 6 q q , , q ; ; y ; > s = ",
"@ # & : * * = = ; : ; > > > , 0 : q , 6 6 ; 6 6 , : , , & s #.- ",
"@ + * * * * = = : 6 6 > > > 0 2 2 : , , 6 6 6 > : q * * , * 1 @ "
};
